<?xml version="1.0" encoding="us-ascii" standalone="no"?><svg xmlns="http://www.w3.org/2000/svg" xmlns:xlink="http://www.w3.org/1999/xlink" contentStyleType="text/css" height="648px" preserveAspectRatio="none" style="width:470px;height:648px;background:#FFFFFF;" version="1.1" viewBox="0 0 470 648" width="470px" zoomAndPan="magnify"><defs/><g><!--cluster Nutrition System--><g id="cluster_Nutrition System"><rect fill="none" height="635" rx="2.5" ry="2.5" style="stroke:#181818;stroke-width:1.0;" width="198.28" x="93" y="7"/><text fill="#000000" font-family="sans-serif" font-size="14" font-weight="bold" lengthAdjust="spacing" textLength="131" x="126.64" y="21.9951">Nutrition System</text></g><g id="elem_UC1"><ellipse cx="192.1394" cy="57.0019" fill="#F1F1F1" rx="64.0594" ry="15.2119" style="stroke:#181818;stroke-width:0.5;"/><text fill="#000000" font-family="sans-serif" font-size="14" lengthAdjust="spacing" textLength="76" x="151.1394" y="60.7494">View Meals</text></g><g id="elem_UC2"><ellipse cx="192.1448" cy="122.005" fill="#F1F1F1" rx="63.7248" ry="15.145" style="stroke:#181818;stroke-width:0.5;"/><text fill="#000000" font-family="sans-serif" font-size="14" lengthAdjust="spacing" textLength="75" x="151.6448" y="125.7525">Order Meal</text></g><g id="elem_UC3"><ellipse cx="192.1355" cy="188.0031" fill="#F1F1F1" rx="65.7655" ry="15.5531" style="stroke:#181818;stroke-width:0.5;"/><text fill="#000000" font-family="sans-serif" font-size="14" lengthAdjust="spacing" textLength="81" x="148.6355" y="191.7507">Track Order</text></g><g id="elem_UC4"><ellipse cx="192.1378" cy="256.0036" fill="#F1F1F1" rx="73.0678" ry="17.0136" style="stroke:#181818;stroke-width:0.5;"/><text fill="#000000" font-family="sans-serif" font-size="14" lengthAdjust="spacing" textLength="101" x="138.6378" y="259.7511">Manage Profile</text></g><g id="elem_UC5"><ellipse cx="192.1378" cy="325.0036" fill="#F1F1F1" rx="73.0678" ry="17.0136" style="stroke:#181818;stroke-width:0.5;"/><text fill="#000000" font-family="sans-serif" font-size="14" lengthAdjust="spacing" textLength="101" x="138.6378" y="328.7511">Make Payment</text></g><g id="elem_UC6"><ellipse cx="192.1373" cy="394.0015" fill="#F1F1F1" rx="72.3073" ry="16.8615" style="stroke:#181818;stroke-width:0.5;"/><text fill="#000000" font-family="sans-serif" font-size="14" lengthAdjust="spacing" textLength="99" x="139.6373" y="397.749">Manage Meals</text></g><g id="elem_UC7"><ellipse cx="192.1448" cy="462.999" fill="#F1F1F1" rx="74.9948" ry="17.399" style="stroke:#181818;stroke-width:0.5;"/><text fill="#000000" font-family="sans-serif" font-size="14" lengthAdjust="spacing" textLength="106" x="136.1448" y="466.7465">Manage Orders</text></g><g id="elem_UC8"><ellipse cx="192.1379" cy="533.9976" fill="#F1F1F1" rx="83.1379" ry="19.0276" style="stroke:#181818;stroke-width:0.5;"/><text fill="#000000" font-family="sans-serif" font-size="14" lengthAdjust="spacing" textLength="126" x="128.5914" y="537.0294">Manage Deliveries</text></g><g id="elem_UC9"><ellipse cx="192.138" cy="606.9976" fill="#F1F1F1" rx="82.288" ry="18.8576" style="stroke:#181818;stroke-width:0.5;"/><text fill="#000000" font-family="sans-serif" font-size="14" lengthAdjust="spacing" textLength="124" x="129.3005" y="610.1238">Generate Reports</text></g><!--entity user--><g id="elem_user"><ellipse cx="27.5" cy="158.35" fill="#F1F1F1" rx="8" ry="8" style="stroke:#181818;stroke-width:0.5;"/><path d="M27.5,166.35 L27.5,193.35 M14.5,174.35 L40.5,174.35 M27.5,193.35 L14.5,208.35 M27.5,193.35 L40.5,208.35 " fill="none" style="stroke:#181818;stroke-width:0.5;"/><text fill="#000000" font-family="sans-serif" font-size="14" lengthAdjust="spacing" textLength="32" x="11.5" y="222.8451">User</text></g><!--entity admin--><g id="elem_admin"><ellipse cx="27.5" cy="468.35" fill="#F1F1F1" rx="8" ry="8" style="stroke:#181818;stroke-width:0.5;"/><path d="M27.5,476.35 L27.5,503.35 M14.5,484.35 L40.5,484.35 M27.5,503.35 L14.5,518.35 M27.5,503.35 L40.5,518.35 " fill="none" style="stroke:#181818;stroke-width:0.5;"/><text fill="#000000" font-family="sans-serif" font-size="14" lengthAdjust="spacing" textLength="43" x="6" y="532.8451">Admin</text></g><!--entity delivery--><g id="elem_delivery"><ellipse cx="399.28" cy="469.35" fill="#F1F1F1" rx="8" ry="8" style="stroke:#181818;stroke-width:0.5;"/><path d="M399.28,477.35 L399.28,504.35 M386.28,485.35 L412.28,485.35 M399.28,504.35 L386.28,519.35 M399.28,504.35 L412.28,519.35 " fill="none" style="stroke:#181818;stroke-width:0.5;"/><text fill="#000000" font-family="sans-serif" font-size="14" lengthAdjust="spacing" textLength="128" x="335.28" y="533.8451">Delivery Personnel</text></g><!--link user to UC1--><g id="link_user_UC1"><path d="M42.32,149.36 C51.5,128.76 65.49,104.53 85,89 C99.83,77.19 118.96,69.73 136.89,65.02 " fill="none" id="user-UC1" style="stroke:#181818;stroke-width:1.0;"/></g><!--link user to UC2--><g id="link_user_UC2"><path d="M43.82,177.76 C54.91,170.68 70.45,161.41 85,155 C104.95,146.21 127.97,138.75 147.46,133.16 " fill="none" id="user-UC2" style="stroke:#181818;stroke-width:1.0;"/></g><!--link user to UC3--><g id="link_user_UC3"><path d="M43.8,188 C62.62,188 95.78,188 125.88,188 " fill="none" id="user-UC3" style="stroke:#181818;stroke-width:1.0;"/></g><!--link user to UC4--><g id="link_user_UC4"><path d="M43.86,198.16 C54.96,205.21 70.5,214.46 85,221 C103.84,229.49 125.37,236.98 144.1,242.82 " fill="none" id="user-UC4" style="stroke:#181818;stroke-width:1.0;"/></g><!--link user to UC5--><g id="link_user_UC5"><path d="M41.43,226.54 C50.51,248.24 64.7,274.26 85,291 C98.58,302.2 115.92,309.74 132.63,314.79 " fill="none" id="user-UC5" style="stroke:#181818;stroke-width:1.0;"/></g><!--link admin to UC6--><g id="link_admin_UC6"><path d="M49.37,464.43 C58.86,451.48 71.09,437.54 85,428 C100.24,417.55 118.88,410.17 136.26,405.02 " fill="none" id="admin-UC6" style="stroke:#181818;stroke-width:1.0;"/></g><!--link admin to UC7--><g id="link_admin_UC7"><path d="M49.43,493.5 C71.22,488.81 106.27,481.26 136.05,474.85 " fill="none" id="admin-UC7" style="stroke:#181818;stroke-width:1.0;"/></g><!--link admin to UC9--><g id="link_admin_UC9"><path d="M49.45,533.28 C58.88,546.66 71.04,561.04 85,571 C99.02,581 116.03,588.39 132.29,593.77 " fill="none" id="admin-UC9" style="stroke:#181818;stroke-width:1.0;"/></g><!--link admin to UC8--><g id="link_admin_UC8"><path d="M49.43,502.63 C70.02,507.19 102.44,514.37 131.08,520.71 " fill="none" id="admin-UC8" style="stroke:#181818;stroke-width:1.0;"/></g><!--link UC7 to delivery--><g id="link_UC7_delivery"><path d="M253.02,473.51 C278.8,478.03 308.96,483.33 335.1,487.91 " fill="none" id="UC7-delivery" style="stroke:#181818;stroke-width:1.0;"/></g><!--link UC8 to delivery--><g id="link_UC8_delivery"><path d="M259.74,522.64 C283.84,518.52 310.97,513.9 334.8,509.83 " fill="none" id="UC8-delivery" style="stroke:#181818;stroke-width:1.0;"/></g><!--SRC=[RP7DJWCn38JlUGfhxptG_nuHI9mA5L3krgwxHCqco4b1AyIxauG4ZBItcVb6ZXKREWK83bZthm4wpTG6xQp2DZY6vkY96q0FboXgUDqDskOKawhnBHdzJZp2WTWxQydaJbTYbKQZxGr1Sty9hDCxy3JwG4C3dmhI6otwY5yqVS2UqFWyuNXp9Ua3TyGP5pgNz9cnFKFk5BoGU8yMUu83kvCsL1hB_urpv3WEP4FXgua9Shtr1CyRrC9ceb2-IrCjRMNfZYmn1e97UdCSQcUdlbGw1Snc-Ll-z5peXT1BeLSg7-p7hANPIBEJPgiYJVBtZZ6J_Xi0]--></g></svg>